<svg xmlns="http://www.w3.org/2000/svg" width="55.992" height="59.06" viewBox="0 0 55.992 59.06"><g transform="translate(-390.008 -299.94)"><g transform="translate(397 327)" fill="#fff"><path d="M 48.5 31.5 L 0.5 31.5 L 0.5 -6.5 L 48.5 -6.5 L 48.5 31.5 Z" stroke="none"/><path d="M 1 -6 L 1 31 L 48 31 L 48 -6 L 1 -6 M 0 -7 L 49 -7 L 49 32 L 0 32 L 0 -7 Z" stroke="none" fill="#191919"/></g><g transform="translate(396 327)" fill="#d7db5d"><path d="M 48.5 31.5 L 0.5 31.5 L 0.5 -6.5 L 48.5 -6.5 L 48.5 31.5 Z" stroke="none"/><path d="M 1 -6 L 1 31 L 48 31 L 48 -6 L 1 -6 M 0 -7 L 49 -7 L 49 32 L 0 32 L 0 -7 Z" stroke="none" fill="#191919"/></g><g transform="translate(396 326)" fill="#fff"><path d="M 48.43360900878906 31.5 L 0.4413925111293793 31.5 L -3.433607578277588 0.5 L 44.55860900878906 0.5 L 48.43360900878906 31.5 Z" stroke="none"/><path d="M -2.867218017578125 1 L 0.882781982421875 31 L 47.86721801757812 31 L 44.11721801757812 1 L -2.867218017578125 1 M -4 0 L 45 0 L 49 32 L 0 32 L -4 0 Z" stroke="none" fill="#191919"/></g><rect width="32" height="45" transform="matrix(0.848, -0.53, 0.53, 0.848, 390.008, 316.898)" fill="#fff"/><g transform="translate(395 326)" fill="#fff"><path d="M 48.43360900878906 31.5 L 0.4413925111293793 31.5 L -3.433607578277588 0.5 L 44.55860900878906 0.5 L 48.43360900878906 31.5 Z" stroke="none"/><path d="M -2.867218017578125 1 L 0.882781982421875 31 L 47.86721801757812 31 L 44.11721801757812 1 L -2.867218017578125 1 M -4 0 L 45 0 L 49 32 L 0 32 L -4 0 Z" stroke="none" fill="#191919"/></g><path d="M-4,0H41.376l3.7,28.359H-.3Z" transform="translate(398.033 328.695)" fill="#d7db5d"/></g></svg>