<?xml version="1.0" encoding="UTF-8" standalone="no"?>
<svg
  width="260px"
  height="45px"
  viewBox="0 0 76.72113 11.509375"
  version="1.1"
  id="svg1"
  xml:space="preserve"
  xmlns="http://www.w3.org/2000/svg"
  xmlns:svg="http://www.w3.org/2000/svg">
	<defs
     id="defs1" />
	<g
     id="layer1"
     transform="translate(-68.213449,-80.968191)">
		<g
       id="Grupo_25-2"
       data-name="Grupo 25"
       clip-path="none"
       transform="matrix(0.26458333,0,0,0.26458333,68.213446,80.96819)">
			<path
         id="Caminho_46"
         data-name="Caminho 46"
         d="m 288.60285,19.219 a 5.144,5.144 0 0 0 -4.18,-1.619 5.825,5.825 0 0 0 -2.811,0.692 4.753,4.753 0 0 0 -1.958,1.928 l -0.294,-2.208 h -2.5 v 14.393 h 2.767 v -7.623 a 5.055,5.055 0 0 1 1.075,-3.385 3.742,3.742 0 0 1 3.017,-1.266 3.394,3.394 0 0 1 2.532,0.957 4.358,4.358 0 0 1 0.942,3.135 v 8.182 h 2.767 v -8.8 a 6.625,6.625 0 0 0 -1.354,-4.386"
         fill="#ffffff" />
			<path
         id="Caminho_45"
         data-name="Caminho 45"
         d="m 268.82185,17.605 a 5.826,5.826 0 0 0 -2.811,0.692 4.755,4.755 0 0 0 -1.958,1.928 l -0.295,-2.208 h -2.5 v 14.388 h 2.767 v -7.623 a 5.054,5.054 0 0 1 1.074,-3.385 3.742,3.742 0 0 1 3.017,-1.266 3.393,3.393 0 0 1 2.532,0.957 4.356,4.356 0 0 1 0.942,3.135 v 8.182 h 2.767 v -8.8 a 6.625,6.625 0 0 0 -1.354,-4.386 5.144,5.144 0 0 0 -4.18,-1.619"
         fill="#ffffff" />
			<path
         id="Caminho_44"
         data-name="Caminho 44"
         d="m 255.91285,18.233 a 7.27,7.27 0 0 0 -3.135,-0.633 7.976,7.976 0 0 0 -3.253,0.618 4.986,4.986 0 0 0 -2.164,1.737 4.524,4.524 0 0 0 -0.765,2.62 h 2.417 a 2.411,2.411 0 0 1 0.957,-2.046 4.4,4.4 0 0 1 2.693,-0.721 4.608,4.608 0 0 1 1.737,0.309 2.47,2.47 0 0 1 1.207,1.03 3.665,3.665 0 0 1 0.442,1.928 v 0.412 l -4.533,0.353 a 6.831,6.831 0 0 0 -3.944,1.4 3.934,3.934 0 0 0 -1.413,3.164 4.083,4.083 0 0 0 1.31,3.15 5.116,5.116 0 0 0 3.606,1.207 6.563,6.563 0 0 0 3.105,-0.721 4.137,4.137 0 0 0 1.928,-1.957 l 0.294,2.325 h 2.355 V 23.37 a 6.3,6.3 0 0 0 -0.751,-3.223 4.7,4.7 0 0 0 -2.09,-1.913 m 0.162,7.962 a 4.523,4.523 0 0 1 -1.118,3.223 4.033,4.033 0 0 1 -3.091,1.192 3.528,3.528 0 0 1 -2.134,-0.574 2,2 0 0 1 -0.78,-1.722 2.161,2.161 0 0 1 0.81,-1.737 4.858,4.858 0 0 1 2.634,-0.854 l 3.679,-0.294 z"
         fill="#ffffff" />
			<path
         id="Caminho_43"
         data-name="Caminho 43"
         d="m 238.45585,17.605 a 5.161,5.161 0 0 0 -3.268,1.03 4.2,4.2 0 0 0 -1.386,1.87 4.617,4.617 0 0 0 -1.38,-1.877 4.872,4.872 0 0 0 -3.179,-1.03 5.04,5.04 0 0 0 -2.9,0.809 4.313,4.313 0 0 0 -1.391,1.486 l -0.272,-1.884 h -2.473 v 14.396 h 2.767 V 23.87 a 4.21,4.21 0 0 1 0.442,-1.987 3.175,3.175 0 0 1 1.221,-1.3 3.518,3.518 0 0 1 1.81,-0.456 3.058,3.058 0 0 1 2.325,0.9 3.64,3.64 0 0 1 0.854,2.605 v 8.773 h 2.737 V 23.87 a 4.3,4.3 0 0 1 0.442,-2 3.158,3.158 0 0 1 1.222,-1.31 3.517,3.517 0 0 1 1.81,-0.456 3.054,3.054 0 0 1 2.34,0.927 3.711,3.711 0 0 1 0.868,2.634 v 8.74 h 2.708 v -9.42 a 5.4,5.4 0 0 0 -1.413,-3.944 5.191,5.191 0 0 0 -3.886,-1.443"
         fill="#ffffff" />
			<path
         id="Caminho_49"
         data-name="Caminho 49"
         d="m 216.15485,10.741 h 2.767 v 21.665 h -2.767 z"
         fill="#ffffff" />
			<rect
         id="Retângulo_40"
         data-name="Retângulo 40"
         width="2.767"
         height="21.665001"
         fill="#ffffff"
         x="210.04665"
         y="10.741" />
			<path
         id="Caminho_42"
         data-name="Caminho 42"
         d="m 203.64485,24.665 a 5.364,5.364 0 0 1 -1.354,3.915 5.151,5.151 0 0 1 -3.856,1.384 4.777,4.777 0 0 1 -5.269,-5.3 v -13.54 h -2.885 v 13.717 a 8.582,8.582 0 0 0 0.986,4.224 6.667,6.667 0 0 0 2.826,2.738 9.291,9.291 0 0 0 4.342,0.957 9.089,9.089 0 0 0 4.327,-0.971 6.814,6.814 0 0 0 2.811,-2.738 8.5,8.5 0 0 0 0.986,-4.209 V 11.124 h -2.914 z"
         fill="#ffffff" />
			<rect
         style="fill:#ffffff;stroke-width:1.06446"
         id="rect2"
         width="2.5719166"
         height="2.4090219"
         x="179.50882"
         y="29.958384"
         ry="0.066291265" />
			<path
         id="Caminho_37-1"
         data-name="Caminho 37"
         d="m 114.22325,87.948721 c -0.0467,-0.0072 -0.25471,0.361475 -0.47713,0.582501 -0.15942,0.133931 -0.34507,0.233065 -0.54504,0.291042 -0.2201,0.06404 -0.44839,0.0955 -0.6776,0.0934 -0.35645,0.007 -0.70841,-0.08037 -1.02023,-0.253206 -0.29813,-0.170977 -0.5382,-0.427357 -0.68924,-0.736071 -0.17231,-0.362005 -0.25636,-0.759695 -0.24527,-1.160462 -0.009,-0.401924 0.0706,-0.800908 0.23363,-1.1684 0.14442,-0.318064 0.37724,-0.587898 0.67072,-0.777346 0.31309,-0.193134 0.67578,-0.290612 1.04351,-0.280458 0.34981,-0.0066 0.69426,0.08669 0.99299,0.268816 0.29176,0.183816 0.50218,0.472242 0.58816,0.806186 h 0.80989 c -0.0502,-0.347505 -0.1943,-0.674725 -0.41671,-0.946415 -0.22571,-0.271123 -0.51265,-0.484694 -0.83715,-0.623093 -0.83534,-0.342264 -1.78094,-0.286388 -2.57016,0.15187 -0.41435,0.24765 -0.75066,0.606884 -0.97049,1.036638 -0.23786,0.470323 -0.35686,0.99176 -0.3466,1.518708 -0.0123,0.526848 0.10587,1.048563 0.34395,1.518709 0.2164,0.418262 0.54551,0.76763 0.95012,1.008591 0.42541,0.246946 0.9105,0.372245 1.40229,0.362215 0.28612,0.0033 0.57067,-0.04279 0.84111,-0.136261 0.23753,-0.08154 0.6752,-0.243468 0.87035,-0.401541 0.12429,-0.10056 0.39865,-0.368031 0.48464,-0.502814 l 0.24421,-0.392864 -0.41242,-0.154155 z"
         fill="#ffffff"
         style="stroke-width:0.264583"
         transform="matrix(3.7795276,0,0,3.7795276,-257.8146,-306.02151)" />
			<rect
         id="Retângulo_39"
         data-name="Retângulo 39"
         width="2.767"
         height="21.665001"
         transform="translate(143.822,10.741005)"
         fill="#ffffff"
         x="0"
         y="0" />
			<path
         id="Caminho_41"
         data-name="Caminho 41"
         d="m 380.178,63.311 a 4.907,4.907 0 0 1 -2.65,0.647 4.177,4.177 0 0 1 -3.385,-1.4 5.575,5.575 0 0 1 -1.155,-3.315 l 11.134,-0.026 v -1.03 a 7.9,7.9 0 0 0 -0.839,-3.739 6.086,6.086 0 0 0 -2.355,-2.472 6.983,6.983 0 0 0 -3.577,-0.883 6.655,6.655 0 0 0 -6.137,3.65 8.413,8.413 0 0 0 -0.9,3.974 8.15,8.15 0 0 0 0.912,3.929 6.708,6.708 0 0 0 2.532,2.65 7.15,7.15 0 0 0 3.709,0.957 7.306,7.306 0 0 0 4.416,-1.266 5.861,5.861 0 0 0 2.266,-3.562 h -2.59 a 3.168,3.168 0 0 1 -1.383,1.884 m -5.2,-9.287 a 4.456,4.456 0 0 1 2.37,-0.6 3.748,3.748 0 0 1 4,3.974 h -8.313 a 5.957,5.957 0 0 1 0.438,-1.6 3.812,3.812 0 0 1 1.5,-1.766"
         transform="translate(-242.761,-33.494996)"
         fill="#ffffff" />
			<rect
         id="Retângulo_37"
         data-name="Retângulo 37"
         width="3.6500001"
         height="3.6500001"
         transform="translate(122.125,10.947005)"
         fill="#ffffff"
         x="0"
         y="0" />
			<rect
         id="Retângulo_38"
         data-name="Retângulo 38"
         width="2.767"
         height="14.395"
         transform="translate(122.566,18.012005)"
         fill="#ffffff"
         x="0"
         y="0" />
			<path
         id="Caminho_40"
         data-name="Caminho 40"
         d="m 334.152,51.437 a 4.325,4.325 0 0 0 -2.8,0.9 3.88,3.88 0 0 0 -1.2,1.614 l -0.179,-2.189 h -2.591 v 14.364 h 2.767 V 58.5 a 4.361,4.361 0 0 1 1.133,-3.223 4.2,4.2 0 0 1 3.106,-1.133 h 1.236 v -2.53 q -0.412,-0.088 -0.751,-0.133 a 5.623,5.623 0 0 0 -0.721,-0.044"
         transform="translate(-214.615,-33.719996)"
         fill="#ffffff" />
			<path
         id="Caminho_39"
         data-name="Caminho 39"
         d="m 289.732,39.029 a 6.2,6.2 0 0 0 -3.532,-0.986 6.609,6.609 0 0 0 -3.15,0.736 4.811,4.811 0 0 0 -2.09,2.149 v -9.744 h -2.767 v 21.665 h 2.5 l 0.206,-2.62 a 4.966,4.966 0 0 0 2.075,2.208 6.135,6.135 0 0 0 3.047,0.765 6.62,6.62 0 0 0 3.606,-0.957 6.32,6.32 0 0 0 2.34,-2.664 8.758,8.758 0 0 0 0.824,-3.856 9.457,9.457 0 0 0 -0.791,-3.974 6.4,6.4 0 0 0 -2.267,-2.723 m -0.25,9.229 a 4.262,4.262 0 0 1 -1.546,1.8 4.348,4.348 0 0 1 -2.414,0.648 4.422,4.422 0 0 1 -2.428,-0.648 4.221,4.221 0 0 1 -1.56,-1.8 6.115,6.115 0 0 1 -0.545,-2.65 6.018,6.018 0 0 1 0.545,-2.634 4.238,4.238 0 0 1 1.56,-1.781 4.422,4.422 0 0 1 2.428,-0.648 4.277,4.277 0 0 1 2.414,0.662 4.385,4.385 0 0 1 1.546,1.8 5.946,5.946 0 0 1 0.545,2.605 6.115,6.115 0 0 1 -0.545,2.65"
         transform="translate(-182.369,-20.442996)"
         fill="#ffffff" />
			<path
         id="Caminho_38"
         data-name="Caminho 38"
         d="m 242.4,51.728 a 7.27,7.27 0 0 0 -3.135,-0.633 7.976,7.976 0 0 0 -3.252,0.618 4.987,4.987 0 0 0 -2.164,1.737 4.525,4.525 0 0 0 -0.765,2.62 h 2.416 a 2.411,2.411 0 0 1 0.957,-2.046 4.4,4.4 0 0 1 2.693,-0.721 4.609,4.609 0 0 1 1.737,0.309 2.473,2.473 0 0 1 1.207,1.03 3.665,3.665 0 0 1 0.441,1.928 v 0.412 L 238,57.336 a 6.834,6.834 0 0 0 -3.945,1.4 3.936,3.936 0 0 0 -1.413,3.164 4.082,4.082 0 0 0 1.31,3.15 5.115,5.115 0 0 0 3.606,1.207 6.565,6.565 0 0 0 3.106,-0.721 4.137,4.137 0 0 0 1.928,-1.957 l 0.294,2.325 h 2.355 v -9.039 a 6.3,6.3 0 0 0 -0.75,-3.223 4.7,4.7 0 0 0 -2.09,-1.913 m 0.162,7.962 a 4.523,4.523 0 0 1 -1.118,3.223 4.033,4.033 0 0 1 -3.091,1.192 3.527,3.527 0 0 1 -2.134,-0.574 2,2 0 0 1 -0.78,-1.722 2.161,2.161 0 0 1 0.809,-1.737 4.859,4.859 0 0 1 2.634,-0.854 l 3.68,-0.294 z"
         transform="translate(-152.51,-33.494996)"
         fill="#ffffff" />
			<path
         id="Caminho_37"
         data-name="Caminho 37"
         d="m 178.382,43.75 h 7.124 v 0.618 a 6.865,6.865 0 0 1 -0.515,2.767 5.238,5.238 0 0 1 -1.4,1.928 5.647,5.647 0 0 1 -2.06,1.1 8.876,8.876 0 0 1 -2.561,0.353 7.645,7.645 0 0 1 -3.856,-0.957 6.5,6.5 0 0 1 -2.605,-2.782 9.588,9.588 0 0 1 -0.927,-4.386 10.31,10.31 0 0 1 0.883,-4.416 6.885,6.885 0 0 1 2.535,-2.938 7.137,7.137 0 0 1 3.944,-1.06 6.959,6.959 0 0 1 3.753,1.016 5.106,5.106 0 0 1 2.223,3.047 h 3.061 a 7.294,7.294 0 0 0 -1.575,-3.577 8.41,8.41 0 0 0 -3.164,-2.355 11.235,11.235 0 0 0 -9.714,0.574 9.723,9.723 0 0 0 -3.668,3.918 12.193,12.193 0 0 0 -1.31,5.74 12.082,12.082 0 0 0 1.3,5.74 9.538,9.538 0 0 0 3.591,3.812 10.145,10.145 0 0 0 5.3,1.369 9.4,9.4 0 0 0 3.179,-0.515 8.112,8.112 0 0 0 2.472,-1.369 5.606,5.606 0 0 0 1.2,-1.343 l 0.217,2.9 h 2.414 V 41.189 h -9.832 z"
         fill="#ffffff"
         transform="translate(-110.493,-20.497996)" />
			<path
         id="Caminho_47"
         data-name="Caminho 47"
         d="m 39.266,45.923 h 2.817 l 8.573,-21.872 h -2.847 z"
         transform="translate(-25.741,-15.767)"
         fill="#ffffff" />
			<path
         id="Caminho_48"
         data-name="Caminho 48"
         d="M 42.782,5.753 37.771,0.741 37.748,0.719 a 2.4,2.4 0 0 0 -1.232,-0.67 v 0 C 36.448,0.035 36.38,0.026 36.316,0.018 L 36.275,0.012 C 36.194,0 36.112,0 36.03,0 H 2.411 A 2.412,2.412 0 0 0 0,2.411 V 36.03 c 0,0.083 0,0.164 0.012,0.245 0,0.01 0,0.02 0,0.03 a 2.39,2.39 0 0 0 0.7,1.439 l 5.037,5.037 A 2.4,2.4 0 0 0 7.47,43.5 H 41.089 A 2.412,2.412 0 0 0 43.5,41.089 V 7.47 A 2.4,2.4 0 0 0 42.782,5.752 m -6.053,29.932 a 1.045,1.045 0 0 1 -1.045,1.045 H 2.757 A 1.045,1.045 0 0 1 1.712,35.684 V 2.758 A 1.045,1.045 0 0 1 2.757,1.712 h 32.927 a 1.045,1.045 0 0 1 1.045,1.045 z"
         fill="#ffffff" />
		</g>
	</g>
</svg>