<svg id="Grupo_25" data-name="Grupo 25" xmlns="http://www.w3.org/2000/svg" xmlns:xlink="http://www.w3.org/1999/xlink" width="258.098" height="43.5" viewBox="0 0 258.098 43.5">
  <defs>
    <clipPath id="clip-path">
      <rect id="Retângulo_42" data-name="Retângulo 42" width="258.098" height="43.5" fill="none"/>
    </clipPath>
  </defs>
  <g id="Grupo_25-2" data-name="Grupo 25" clip-path="url(#clip-path)">
    <path id="Caminho_37" data-name="Caminho 37" d="M178.382,43.75h7.124v.618a6.865,6.865,0,0,1-.515,2.767,5.238,5.238,0,0,1-1.4,1.928,5.647,5.647,0,0,1-2.06,1.1,8.876,8.876,0,0,1-2.561.353,7.645,7.645,0,0,1-3.856-.957,6.5,6.5,0,0,1-2.605-2.782,9.588,9.588,0,0,1-.927-4.386,10.31,10.31,0,0,1,.883-4.416A6.885,6.885,0,0,1,175,35.037a7.137,7.137,0,0,1,3.944-1.06,6.959,6.959,0,0,1,3.753,1.016,5.106,5.106,0,0,1,2.223,3.047h3.061a7.294,7.294,0,0,0-1.575-3.577,8.41,8.41,0,0,0-3.164-2.355,11.235,11.235,0,0,0-9.714.574A9.723,9.723,0,0,0,169.86,36.6a12.193,12.193,0,0,0-1.31,5.74,12.082,12.082,0,0,0,1.3,5.74,9.538,9.538,0,0,0,3.591,3.812,10.145,10.145,0,0,0,5.3,1.369,9.4,9.4,0,0,0,3.179-.515,8.112,8.112,0,0,0,2.472-1.369,5.606,5.606,0,0,0,1.2-1.343l.217,2.9h2.414V41.189h-9.832Z" transform="translate(-110.493 -20.498)" fill="#fff"/>
    <path id="Caminho_38" data-name="Caminho 38" d="M242.4,51.728a7.27,7.27,0,0,0-3.135-.633,7.976,7.976,0,0,0-3.252.618,4.987,4.987,0,0,0-2.164,1.737,4.525,4.525,0,0,0-.765,2.62H235.5a2.411,2.411,0,0,1,.957-2.046,4.4,4.4,0,0,1,2.693-.721,4.609,4.609,0,0,1,1.737.309,2.473,2.473,0,0,1,1.207,1.03,3.665,3.665,0,0,1,.441,1.928v.412L238,57.336a6.834,6.834,0,0,0-3.945,1.4,3.936,3.936,0,0,0-1.413,3.164,4.082,4.082,0,0,0,1.31,3.15,5.115,5.115,0,0,0,3.606,1.207,6.565,6.565,0,0,0,3.106-.721,4.137,4.137,0,0,0,1.928-1.957l.294,2.325h2.355V56.865a6.3,6.3,0,0,0-.75-3.223,4.7,4.7,0,0,0-2.09-1.913m.162,7.962a4.523,4.523,0,0,1-1.118,3.223,4.033,4.033,0,0,1-3.091,1.192,3.527,3.527,0,0,1-2.134-.574,2,2,0,0,1-.78-1.722,2.161,2.161,0,0,1,.809-1.737,4.859,4.859,0,0,1,2.634-.854l3.68-.294Z" transform="translate(-152.51 -33.495)" fill="#fff"/>
    <path id="Caminho_39" data-name="Caminho 39" d="M289.732,39.029a6.2,6.2,0,0,0-3.532-.986,6.609,6.609,0,0,0-3.15.736,4.811,4.811,0,0,0-2.09,2.149V31.184h-2.767V52.849h2.5l.206-2.62a4.966,4.966,0,0,0,2.075,2.208,6.135,6.135,0,0,0,3.047.765,6.62,6.62,0,0,0,3.606-.957,6.32,6.32,0,0,0,2.34-2.664,8.758,8.758,0,0,0,.824-3.856A9.457,9.457,0,0,0,292,41.751a6.4,6.4,0,0,0-2.267-2.723m-.25,9.229a4.262,4.262,0,0,1-1.546,1.8,4.348,4.348,0,0,1-2.414.648,4.422,4.422,0,0,1-2.428-.648,4.221,4.221,0,0,1-1.56-1.8,6.115,6.115,0,0,1-.545-2.65,6.018,6.018,0,0,1,.545-2.634,4.238,4.238,0,0,1,1.56-1.781,4.422,4.422,0,0,1,2.428-.648,4.277,4.277,0,0,1,2.414.662,4.385,4.385,0,0,1,1.546,1.8,5.946,5.946,0,0,1,.545,2.605,6.115,6.115,0,0,1-.545,2.65" transform="translate(-182.369 -20.443)" fill="#fff"/>
    <path id="Caminho_40" data-name="Caminho 40" d="M334.152,51.437a4.325,4.325,0,0,0-2.8.9,3.88,3.88,0,0,0-1.2,1.614l-.179-2.189h-2.591V66.126h2.767V58.5a4.361,4.361,0,0,1,1.133-3.223,4.2,4.2,0,0,1,3.106-1.133h1.236V51.614q-.412-.088-.751-.133a5.623,5.623,0,0,0-.721-.044" transform="translate(-214.615 -33.72)" fill="#fff"/>
    <rect id="Retângulo_37" data-name="Retângulo 37" width="3.65" height="3.65" transform="translate(122.125 10.947)" fill="#fff"/>
    <rect id="Retângulo_38" data-name="Retângulo 38" width="2.767" height="14.395" transform="translate(122.566 18.012)" fill="#fff"/>
    <path id="Caminho_41" data-name="Caminho 41" d="M380.178,63.311a4.907,4.907,0,0,1-2.65.647,4.177,4.177,0,0,1-3.385-1.4,5.575,5.575,0,0,1-1.155-3.315l11.134-.026v-1.03a7.9,7.9,0,0,0-.839-3.739,6.086,6.086,0,0,0-2.355-2.472,6.983,6.983,0,0,0-3.577-.883,6.655,6.655,0,0,0-6.137,3.65,8.413,8.413,0,0,0-.9,3.974,8.15,8.15,0,0,0,.912,3.929,6.708,6.708,0,0,0,2.532,2.65,7.15,7.15,0,0,0,3.709.957,7.306,7.306,0,0,0,4.416-1.266,5.861,5.861,0,0,0,2.266-3.562h-2.59a3.168,3.168,0,0,1-1.383,1.884m-5.2-9.287a4.456,4.456,0,0,1,2.37-.6,3.748,3.748,0,0,1,4,3.974h-8.313a5.957,5.957,0,0,1,.438-1.6,3.812,3.812,0,0,1,1.5-1.766" transform="translate(-242.761 -33.495)" fill="#fff"/>
    <rect id="Retângulo_39" data-name="Retângulo 39" width="2.767" height="21.665" transform="translate(143.822 10.741)" fill="#fff"/>
    <path id="Caminho_42" data-name="Caminho 42" d="M473.291,45.835a5.364,5.364,0,0,1-1.354,3.915,5.151,5.151,0,0,1-3.856,1.384,4.777,4.777,0,0,1-5.269-5.3V32.294h-2.885V46.011a8.582,8.582,0,0,0,.986,4.224,6.667,6.667,0,0,0,2.826,2.738,9.291,9.291,0,0,0,4.342.957,9.089,9.089,0,0,0,4.327-.971,6.814,6.814,0,0,0,2.811-2.738,8.5,8.5,0,0,0,.986-4.209V32.294h-2.914Z" transform="translate(-301.505 -21.17)" fill="#fff"/>
    <rect id="Retângulo_40" data-name="Retângulo 40" width="2.767" height="21.665" transform="translate(178.188 10.741)" fill="#fff"/>
    <path id="Caminho_49" data-name="Caminho 49" d="M0,0H2.767V21.665H0Z" transform="translate(184.296 10.741)" fill="#fff"/>
    <path id="Caminho_43" data-name="Caminho 43" d="M568.863,51.1a5.161,5.161,0,0,0-3.268,1.03A4.2,4.2,0,0,0,564.209,54a4.617,4.617,0,0,0-1.38-1.877,4.872,4.872,0,0,0-3.179-1.03,5.04,5.04,0,0,0-2.9.809,4.313,4.313,0,0,0-1.391,1.486l-.272-1.884h-2.473V65.9h2.767V57.365a4.21,4.21,0,0,1,.442-1.987,3.175,3.175,0,0,1,1.221-1.3,3.518,3.518,0,0,1,1.81-.456,3.058,3.058,0,0,1,2.325.9,3.64,3.64,0,0,1,.854,2.605V65.9h2.737V57.365a4.3,4.3,0,0,1,.442-2,3.158,3.158,0,0,1,1.222-1.31,3.517,3.517,0,0,1,1.81-.456,3.054,3.054,0,0,1,2.34.927,3.711,3.711,0,0,1,.868,2.634V65.9h2.708v-9.42a5.4,5.4,0,0,0-1.413-3.944,5.191,5.191,0,0,0-3.886-1.443" transform="translate(-362.266 -33.495)" fill="#fff"/>
    <path id="Caminho_44" data-name="Caminho 44" d="M631.9,51.728a7.27,7.27,0,0,0-3.135-.633,7.976,7.976,0,0,0-3.253.618,4.986,4.986,0,0,0-2.164,1.737,4.524,4.524,0,0,0-.765,2.62H625a2.411,2.411,0,0,1,.957-2.046,4.4,4.4,0,0,1,2.693-.721,4.608,4.608,0,0,1,1.737.309,2.47,2.47,0,0,1,1.207,1.03,3.665,3.665,0,0,1,.442,1.928v.412l-4.533.353a6.831,6.831,0,0,0-3.944,1.4,3.934,3.934,0,0,0-1.413,3.164,4.083,4.083,0,0,0,1.31,3.15,5.116,5.116,0,0,0,3.606,1.207,6.563,6.563,0,0,0,3.105-.721,4.137,4.137,0,0,0,1.928-1.957l.294,2.325h2.355V56.865a6.3,6.3,0,0,0-.751-3.223,4.7,4.7,0,0,0-2.09-1.913m.162,7.962a4.523,4.523,0,0,1-1.118,3.223,4.033,4.033,0,0,1-3.091,1.192,3.528,3.528,0,0,1-2.134-.574,2,2,0,0,1-.78-1.722,2.161,2.161,0,0,1,.81-1.737,4.858,4.858,0,0,1,2.634-.854l3.679-.294Z" transform="translate(-407.846 -33.495)" fill="#fff"/>
    <path id="Caminho_45" data-name="Caminho 45" d="M673.549,51.1a5.826,5.826,0,0,0-2.811.692,4.755,4.755,0,0,0-1.958,1.928l-.295-2.208h-2.5V65.9h2.767V58.277a5.054,5.054,0,0,1,1.074-3.385,3.742,3.742,0,0,1,3.017-1.266,3.393,3.393,0,0,1,2.532.957,4.356,4.356,0,0,1,.942,3.135V65.9h2.767V57.1a6.625,6.625,0,0,0-1.354-4.386,5.144,5.144,0,0,0-4.18-1.619" transform="translate(-436.586 -33.495)" fill="#fff"/>
    <path id="Caminho_46" data-name="Caminho 46" d="M723.022,52.714a5.144,5.144,0,0,0-4.18-1.619,5.825,5.825,0,0,0-2.811.692,4.753,4.753,0,0,0-1.958,1.928l-.294-2.208h-2.5V65.9h2.767V58.277a5.055,5.055,0,0,1,1.075-3.385,3.742,3.742,0,0,1,3.017-1.266,3.394,3.394,0,0,1,2.532.957,4.358,4.358,0,0,1,.942,3.135V65.9h2.767V57.1a6.625,6.625,0,0,0-1.354-4.386" transform="translate(-466.278 -33.495)" fill="#fff"/>
    <path id="Caminho_47" data-name="Caminho 47" d="M39.266,45.923h2.817l8.573-21.872H47.809Z" transform="translate(-25.741 -15.767)" fill="#fff"/>
    <path id="Caminho_48" data-name="Caminho 48" d="M42.782,5.753,37.771.741,37.748.719A2.4,2.4,0,0,0,36.516.049h0c-.068-.014-.136-.023-.2-.031L36.275.012C36.194,0,36.112,0,36.03,0H2.411A2.412,2.412,0,0,0,0,2.411V36.03c0,.083,0,.164.012.245,0,.01,0,.02,0,.03a2.39,2.39,0,0,0,.7,1.439l5.037,5.037A2.4,2.4,0,0,0,7.47,43.5H41.089A2.412,2.412,0,0,0,43.5,41.089V7.47a2.4,2.4,0,0,0-.718-1.718M36.729,35.684a1.045,1.045,0,0,1-1.045,1.045H2.757a1.045,1.045,0,0,1-1.045-1.045V2.758A1.045,1.045,0,0,1,2.757,1.712H35.684a1.045,1.045,0,0,1,1.045,1.045Z" transform="translate(0 0)" fill="#fff"/>
  </g>
</svg>
